<svg width="328" height="238" viewBox="0 0 328 238" fill="none" xmlns="http://www.w3.org/2000/svg">
<path d="M322 0H6C2.68629 0 0 2.68629 0 6V232C0 235.314 2.68629 238 6 238H322C325.314 238 328 235.314 328 232V6C328 2.68629 325.314 0 322 0Z" fill="white"/>
<path d="M321.5 0.5H6.5C3.18629 0.5 0.5 3.18629 0.5 6.5V231.5C0.5 234.814 3.18629 237.5 6.5 237.5H321.5C324.814 237.5 327.5 234.814 327.5 231.5V6.5C327.5 3.18629 324.814 0.5 321.5 0.5Z" stroke="#F0F2F6"/>
<path d="M34 174C32.8954 174 32 174.895 32 176V204C32 205.105 32.8954 206 34 206H294C295.105 206 296 205.105 296 204V176C296 174.895 295.105 174 294 174H34ZM34 172H294C296.209 172 298 173.791 298 176V204C298 206.209 296.209 208 294 208H34C31.7909 208 30 206.209 30 204V176C30 173.791 31.7909 172 34 172ZM93 186C90.7909 186 89 187.791 89 190C89 192.209 90.7909 194 93 194H235C237.209 194 239 192.209 239 190C239 187.791 237.209 186 235 186H93ZM32.3077 30H69.6923C70.9668 30 72 31.0332 72 32.3077V69.6923C72 70.9668 70.9668 72 69.6923 72H32.3077C31.0332 72 30 70.9668 30 69.6923V32.3077C30 31.0332 31.0332 30 32.3077 30ZM32.3077 32C32.1378 32 32 32.1378 32 32.3077V69.6923C32 69.8622 32.1378 70 32.3077 70H69.6923C69.8622 70 70 69.8622 70 69.6923V32.3077C70 32.1378 69.8622 32 69.6923 32H32.3077ZM34 84H294C296.209 84 298 85.7909 298 88C298 90.2091 296.209 92 294 92H34C31.7909 92 30 90.2091 30 88C30 85.7909 31.7909 84 34 84ZM92 64H294C296.209 64 298 65.7909 298 68C298 70.2091 296.209 72 294 72H92C89.7909 72 88 70.2091 88 68C88 65.7909 89.7909 64 92 64ZM34 104H294C296.209 104 298 105.791 298 108C298 110.209 296.209 112 294 112H34C31.7909 112 30 110.209 30 108C30 105.791 31.7909 104 34 104ZM34 124H294C296.209 124 298 125.791 298 128C298 130.209 296.209 132 294 132H34C31.7909 132 30 130.209 30 128C30 125.791 31.7909 124 34 124ZM34 144H294C296.209 144 298 145.791 298 148C298 150.209 296.209 152 294 152H34C31.7909 152 30 150.209 30 148C30 145.791 31.7909 144 34 144ZM62.8222 42.5626C63.0593 48.0265 63.0593 53.9742 62.8222 59.4381C62.7895 60.1848 62.178 60.7867 61.4253 60.8143C54.6371 61.0619 47.3622 61.0619 40.5749 60.8143C39.8213 60.7867 39.2098 60.1848 39.1771 59.4381C38.941 53.9742 38.941 48.0265 39.1771 42.5626C39.2098 41.815 39.8213 41.2141 40.5749 41.1864C47.3622 40.9379 54.6371 40.9379 61.4253 41.1864C62.178 41.2141 62.7895 41.815 62.8222 42.5626ZM57.6371 59.0895C58.5578 59.0895 58.9504 57.9285 58.217 57.3781L48.4374 50.0351C47.6338 49.4503 46.5135 49.5722 45.8569 50.3161L41.5464 54.8771C41.2978 55.1399 41.1586 55.4818 41.1567 55.8418C41.1528 56.5314 41.1451 57.6695 41.1384 58.1028C41.1307 58.6447 41.5733 59.0886 42.1196 59.0886L57.6371 59.0895ZM55.7997 45.5236C54.7389 45.5236 53.8797 46.377 53.8797 47.4284C53.8797 48.4808 54.7389 49.3332 55.7997 49.3332C56.8605 49.3332 57.7197 48.4808 57.7197 47.4284C57.7197 46.377 56.8605 45.5236 55.7997 45.5236Z" fill="#F0F2F6"/>
<path d="M98.1812 46.9912C98.0881 47.9772 97.7241 48.7474 97.0894 49.3018C96.4546 49.8519 95.6104 50.127 94.5566 50.127C93.8203 50.127 93.1707 49.9535 92.6079 49.6064C92.0493 49.2552 91.6177 48.758 91.313 48.1147C91.0083 47.4715 90.8496 46.7246 90.8369 45.874V45.0107C90.8369 44.139 90.9914 43.3709 91.3003 42.7065C91.6092 42.0422 92.0514 41.5301 92.627 41.1704C93.2067 40.8107 93.8753 40.6309 94.6328 40.6309C95.6527 40.6309 96.4736 40.908 97.0957 41.4624C97.7178 42.0168 98.0796 42.7996 98.1812 43.811H96.5815C96.5054 43.1466 96.3107 42.6685 95.9976 42.3765C95.6886 42.0802 95.2337 41.9321 94.6328 41.9321C93.9346 41.9321 93.3971 42.1882 93.0205 42.7002C92.6481 43.208 92.4577 43.9549 92.4492 44.9409V45.7598C92.4492 46.7585 92.627 47.5202 92.9824 48.0449C93.3421 48.5697 93.8669 48.832 94.5566 48.832C95.1872 48.832 95.6611 48.6903 95.9785 48.4067C96.2959 48.1232 96.4969 47.6514 96.5815 46.9912H98.1812ZM101.114 50H99.5713V40.25H101.114V50ZM104.44 50H102.897V43.1318H104.44V50ZM102.802 41.3481C102.802 41.1112 102.876 40.9144 103.024 40.7578C103.177 40.6012 103.393 40.5229 103.672 40.5229C103.951 40.5229 104.167 40.6012 104.319 40.7578C104.472 40.9144 104.548 41.1112 104.548 41.3481C104.548 41.5809 104.472 41.7756 104.319 41.9321C104.167 42.0845 103.951 42.1606 103.672 42.1606C103.393 42.1606 103.177 42.0845 103.024 41.9321C102.876 41.7756 102.802 41.5809 102.802 41.3481ZM105.836 46.5088C105.836 45.4339 106.082 44.5812 106.573 43.9507C107.064 43.3201 107.728 43.0049 108.566 43.0049C109.332 43.0049 109.939 43.2736 110.388 43.811L110.477 43.1318H111.848V52.6406H110.305V49.416C109.857 49.89 109.273 50.127 108.553 50.127C107.732 50.127 107.074 49.8075 106.579 49.1685C106.084 48.5252 105.836 47.6387 105.836 46.5088ZM107.379 46.6421C107.379 47.3446 107.516 47.8968 107.792 48.2988C108.071 48.6966 108.456 48.8955 108.947 48.8955C109.556 48.8955 110.009 48.6353 110.305 48.1147V44.9917C110.009 44.4924 109.56 44.2427 108.959 44.2427C108.469 44.2427 108.081 44.4395 107.798 44.833C107.519 45.2266 107.379 45.8296 107.379 46.6421ZM117.675 49.3271C117.222 49.8604 116.579 50.127 115.745 50.127C115 50.127 114.435 49.909 114.05 49.4731C113.669 49.0373 113.479 48.4067 113.479 47.5815V43.1318H115.021V47.5625C115.021 48.4342 115.383 48.8701 116.107 48.8701C116.856 48.8701 117.362 48.6014 117.624 48.064V43.1318H119.167V50H117.713L117.675 49.3271ZM123.762 50.127C122.785 50.127 121.991 49.8201 121.382 49.2065C120.777 48.5887 120.474 47.7677 120.474 46.7437V46.5532C120.474 45.8677 120.605 45.2562 120.868 44.7188C121.134 44.1771 121.507 43.756 121.985 43.4556C122.463 43.1551 122.996 43.0049 123.584 43.0049C124.52 43.0049 125.241 43.3032 125.749 43.8999C126.261 44.4966 126.517 45.3408 126.517 46.4326V47.0547H122.029C122.076 47.6217 122.264 48.0703 122.594 48.4004C122.929 48.7305 123.347 48.8955 123.851 48.8955C124.558 48.8955 125.133 48.6099 125.578 48.0386L126.409 48.832C126.134 49.2425 125.766 49.562 125.305 49.7905C124.848 50.0148 124.333 50.127 123.762 50.127ZM123.578 44.2427C123.155 44.2427 122.812 44.3908 122.55 44.687C122.292 44.9832 122.127 45.3958 122.055 45.9248H124.994V45.8105C124.96 45.2943 124.822 44.9049 124.581 44.6426C124.34 44.376 124.006 44.2427 123.578 44.2427ZM135.061 50C134.993 49.8688 134.934 49.6551 134.883 49.3589C134.392 49.8709 133.792 50.127 133.081 50.127C132.391 50.127 131.828 49.9302 131.392 49.5366C130.956 49.1431 130.738 48.6564 130.738 48.0767C130.738 47.3446 131.009 46.7839 131.551 46.3945C132.097 46.001 132.875 45.8042 133.887 45.8042H134.833V45.3535C134.833 44.998 134.733 44.7145 134.534 44.5029C134.335 44.2871 134.033 44.1792 133.626 44.1792C133.275 44.1792 132.987 44.2681 132.763 44.4458C132.539 44.6193 132.427 44.8415 132.427 45.1123H130.884C130.884 44.7357 131.009 44.3844 131.259 44.0586C131.508 43.7285 131.847 43.4704 132.274 43.2842C132.706 43.098 133.186 43.0049 133.715 43.0049C134.519 43.0049 135.16 43.208 135.639 43.6143C136.117 44.0163 136.362 44.5833 136.375 45.3154V48.4131C136.375 49.0309 136.462 49.5239 136.635 49.8921V50H135.061ZM133.366 48.8892C133.671 48.8892 133.957 48.8151 134.223 48.667C134.494 48.5189 134.697 48.32 134.833 48.0703V46.7754H134.001C133.43 46.7754 133 46.8748 132.712 47.0737C132.425 47.2726 132.281 47.554 132.281 47.918C132.281 48.2142 132.378 48.4512 132.573 48.6289C132.772 48.8024 133.036 48.8892 133.366 48.8892ZM137.702 46.5088C137.702 45.4339 137.947 44.5812 138.438 43.9507C138.929 43.3201 139.593 43.0049 140.431 43.0049C141.197 43.0049 141.804 43.2736 142.253 43.811L142.342 43.1318H143.713V52.6406H142.17V49.416C141.722 49.89 141.138 50.127 140.418 50.127C139.597 50.127 138.939 49.8075 138.444 49.1685C137.949 48.5252 137.702 47.6387 137.702 46.5088ZM139.244 46.6421C139.244 47.3446 139.382 47.8968 139.657 48.2988C139.936 48.6966 140.321 48.8955 140.812 48.8955C141.421 48.8955 141.874 48.6353 142.17 48.1147V44.9917C141.874 44.4924 141.426 44.2427 140.825 44.2427C140.334 44.2427 139.947 44.4395 139.663 44.833C139.384 45.2266 139.244 45.8296 139.244 46.6421ZM149.54 49.3271C149.087 49.8604 148.444 50.127 147.61 50.127C146.866 50.127 146.301 49.909 145.916 49.4731C145.535 49.0373 145.344 48.4067 145.344 47.5815V43.1318H146.887V47.5625C146.887 48.4342 147.249 48.8701 147.972 48.8701C148.721 48.8701 149.227 48.6014 149.489 48.064V43.1318H151.032V50H149.578L149.54 49.3271ZM154.244 50H152.701V43.1318H154.244V50ZM152.606 41.3481C152.606 41.1112 152.68 40.9144 152.828 40.7578C152.98 40.6012 153.196 40.5229 153.476 40.5229C153.755 40.5229 153.971 40.6012 154.123 40.7578C154.275 40.9144 154.352 41.1112 154.352 41.3481C154.352 41.5809 154.275 41.7756 154.123 41.9321C153.971 42.0845 153.755 42.1606 153.476 42.1606C153.196 42.1606 152.98 42.0845 152.828 41.9321C152.68 41.7756 152.606 41.5809 152.606 41.3481ZM165.181 46.6357C165.181 47.6979 164.939 48.5464 164.457 49.1812C163.975 49.8117 163.327 50.127 162.515 50.127C161.761 50.127 161.158 49.8794 160.706 49.3843V52.6406H159.163V43.1318H160.585L160.648 43.8301C161.101 43.2799 161.717 43.0049 162.496 43.0049C163.333 43.0049 163.989 43.318 164.463 43.9443C164.942 44.5664 165.181 45.4318 165.181 46.5405V46.6357ZM163.645 46.5024C163.645 45.8169 163.507 45.2731 163.232 44.8711C162.961 44.4691 162.572 44.2681 162.064 44.2681C161.433 44.2681 160.981 44.5283 160.706 45.0488V48.0957C160.985 48.6289 161.442 48.8955 162.077 48.8955C162.568 48.8955 162.951 48.6987 163.226 48.3052C163.505 47.9074 163.645 47.3065 163.645 46.5024ZM170.595 50C170.528 49.8688 170.468 49.6551 170.417 49.3589C169.927 49.8709 169.326 50.127 168.615 50.127C167.925 50.127 167.362 49.9302 166.926 49.5366C166.49 49.1431 166.272 48.6564 166.272 48.0767C166.272 47.3446 166.543 46.7839 167.085 46.3945C167.631 46.001 168.41 45.8042 169.421 45.8042H170.367V45.3535C170.367 44.998 170.267 44.7145 170.068 44.5029C169.869 44.2871 169.567 44.1792 169.161 44.1792C168.809 44.1792 168.522 44.2681 168.297 44.4458C168.073 44.6193 167.961 44.8415 167.961 45.1123H166.418C166.418 44.7357 166.543 44.3844 166.793 44.0586C167.043 43.7285 167.381 43.4704 167.809 43.2842C168.24 43.098 168.721 43.0049 169.25 43.0049C170.054 43.0049 170.695 43.208 171.173 43.6143C171.651 44.0163 171.896 44.5833 171.909 45.3154V48.4131C171.909 49.0309 171.996 49.5239 172.169 49.8921V50H170.595ZM168.9 48.8892C169.205 48.8892 169.491 48.8151 169.757 48.667C170.028 48.5189 170.231 48.32 170.367 48.0703V46.7754H169.535C168.964 46.7754 168.534 46.8748 168.247 47.0737C167.959 47.2726 167.815 47.554 167.815 47.918C167.815 48.2142 167.912 48.4512 168.107 48.6289C168.306 48.8024 168.57 48.8892 168.9 48.8892ZM177.121 44.541C176.917 44.5072 176.708 44.4902 176.492 44.4902C175.785 44.4902 175.309 44.7611 175.064 45.3027V50H173.521V43.1318H174.994L175.032 43.8999C175.405 43.3032 175.921 43.0049 176.581 43.0049C176.801 43.0049 176.983 43.0345 177.127 43.0938L177.121 44.541ZM182.008 50C181.941 49.8688 181.881 49.6551 181.831 49.3589C181.34 49.8709 180.739 50.127 180.028 50.127C179.338 50.127 178.775 49.9302 178.339 49.5366C177.903 49.1431 177.686 48.6564 177.686 48.0767C177.686 47.3446 177.956 46.7839 178.498 46.3945C179.044 46.001 179.823 45.8042 180.834 45.8042H181.78V45.3535C181.78 44.998 181.68 44.7145 181.481 44.5029C181.283 44.2871 180.98 44.1792 180.574 44.1792C180.222 44.1792 179.935 44.2681 179.71 44.4458C179.486 44.6193 179.374 44.8415 179.374 45.1123H177.832C177.832 44.7357 177.956 44.3844 178.206 44.0586C178.456 43.7285 178.794 43.4704 179.222 43.2842C179.653 43.098 180.134 43.0049 180.663 43.0049C181.467 43.0049 182.108 43.208 182.586 43.6143C183.064 44.0163 183.31 44.5833 183.322 45.3154V48.4131C183.322 49.0309 183.409 49.5239 183.583 49.8921V50H182.008ZM180.313 48.8892C180.618 48.8892 180.904 48.8151 181.17 48.667C181.441 48.5189 181.644 48.32 181.78 48.0703V46.7754H180.948C180.377 46.7754 179.947 46.8748 179.66 47.0737C179.372 47.2726 179.228 47.554 179.228 47.918C179.228 48.2142 179.325 48.4512 179.52 48.6289C179.719 48.8024 179.983 48.8892 180.313 48.8892ZM190.997 48.8955C191.382 48.8955 191.701 48.7834 191.955 48.5591C192.209 48.3348 192.344 48.0576 192.361 47.7275H193.815C193.798 48.1549 193.665 48.5549 193.415 48.9272C193.165 49.2954 192.827 49.5874 192.399 49.8032C191.972 50.019 191.511 50.127 191.016 50.127C190.055 50.127 189.293 49.8159 188.73 49.1938C188.168 48.5718 187.886 47.7127 187.886 46.6167V46.458C187.886 45.4128 188.166 44.577 188.724 43.9507C189.283 43.3201 190.044 43.0049 191.009 43.0049C191.826 43.0049 192.49 43.244 193.002 43.7222C193.519 44.1961 193.79 44.8203 193.815 45.5947H192.361C192.344 45.2012 192.209 44.8774 191.955 44.6235C191.705 44.3696 191.386 44.2427 190.997 44.2427C190.497 44.2427 190.112 44.4246 189.841 44.7886C189.57 45.1483 189.433 45.6963 189.429 46.4326V46.6802C189.429 47.425 189.562 47.9814 189.829 48.3496C190.099 48.7135 190.489 48.8955 190.997 48.8955ZM198.576 44.541C198.373 44.5072 198.163 44.4902 197.947 44.4902C197.241 44.4902 196.764 44.7611 196.519 45.3027V50H194.977V43.1318H196.449L196.487 43.8999C196.86 43.3032 197.376 43.0049 198.036 43.0049C198.256 43.0049 198.438 43.0345 198.582 43.0938L198.576 44.541ZM201.191 50H199.648V43.1318H201.191V50ZM199.553 41.3481C199.553 41.1112 199.627 40.9144 199.775 40.7578C199.928 40.6012 200.144 40.5229 200.423 40.5229C200.702 40.5229 200.918 40.6012 201.07 40.7578C201.223 40.9144 201.299 41.1112 201.299 41.3481C201.299 41.5809 201.223 41.7756 201.07 41.9321C200.918 42.0845 200.702 42.1606 200.423 42.1606C200.144 42.1606 199.928 42.0845 199.775 41.9321C199.627 41.7756 199.553 41.5809 199.553 41.3481ZM206.98 50C206.912 49.8688 206.853 49.6551 206.802 49.3589C206.311 49.8709 205.71 50.127 205 50.127C204.31 50.127 203.747 49.9302 203.311 49.5366C202.875 49.1431 202.657 48.6564 202.657 48.0767C202.657 47.3446 202.928 46.7839 203.47 46.3945C204.016 46.001 204.794 45.8042 205.806 45.8042H206.751V45.3535C206.751 44.998 206.652 44.7145 206.453 44.5029C206.254 44.2871 205.952 44.1792 205.545 44.1792C205.194 44.1792 204.906 44.2681 204.682 44.4458C204.458 44.6193 204.346 44.8415 204.346 45.1123H202.803C202.803 44.7357 202.928 44.3844 203.178 44.0586C203.427 43.7285 203.766 43.4704 204.193 43.2842C204.625 43.098 205.105 43.0049 205.634 43.0049C206.438 43.0049 207.079 43.208 207.558 43.6143C208.036 44.0163 208.281 44.5833 208.294 45.3154V48.4131C208.294 49.0309 208.381 49.5239 208.554 49.8921V50H206.98ZM205.285 48.8892C205.59 48.8892 205.875 48.8151 206.142 48.667C206.413 48.5189 206.616 48.32 206.751 48.0703V46.7754H205.92C205.349 46.7754 204.919 46.8748 204.631 47.0737C204.344 47.2726 204.2 47.554 204.2 47.918C204.2 48.2142 204.297 48.4512 204.492 48.6289C204.691 48.8024 204.955 48.8892 205.285 48.8892ZM213.505 44.541C213.302 44.5072 213.093 44.4902 212.877 44.4902C212.17 44.4902 211.694 44.7611 211.449 45.3027V50H209.906V43.1318H211.379L211.417 43.8999C211.789 43.3032 212.306 43.0049 212.966 43.0049C213.186 43.0049 213.368 43.0345 213.512 43.0938L213.505 44.541ZM217.428 46.5024C217.428 45.8296 217.562 45.2244 217.828 44.687C218.095 44.1453 218.469 43.7306 218.952 43.4429C219.434 43.1509 219.988 43.0049 220.615 43.0049C221.542 43.0049 222.293 43.3032 222.868 43.8999C223.448 44.4966 223.761 45.2879 223.808 46.2739L223.814 46.6357C223.814 47.3128 223.683 47.918 223.42 48.4512C223.162 48.9844 222.79 49.397 222.303 49.689C221.821 49.981 221.262 50.127 220.627 50.127C219.658 50.127 218.882 49.8053 218.298 49.1621C217.718 48.5146 217.428 47.6535 217.428 46.5786V46.5024ZM218.971 46.6357C218.971 47.3424 219.117 47.8968 219.409 48.2988C219.701 48.6966 220.107 48.8955 220.627 48.8955C221.148 48.8955 221.552 48.6924 221.84 48.2861C222.132 47.8799 222.278 47.2853 222.278 46.5024C222.278 45.8084 222.128 45.2583 221.827 44.8521C221.531 44.4458 221.127 44.2427 220.615 44.2427C220.111 44.2427 219.711 44.4437 219.415 44.8457C219.119 45.2435 218.971 45.8402 218.971 46.6357ZM231.38 50.127C230.403 50.127 229.609 49.8201 229 49.2065C228.395 48.5887 228.092 47.7677 228.092 46.7437V46.5532C228.092 45.8677 228.223 45.2562 228.486 44.7188C228.752 44.1771 229.125 43.756 229.603 43.4556C230.081 43.1551 230.614 43.0049 231.203 43.0049C232.138 43.0049 232.859 43.3032 233.367 43.8999C233.879 44.4966 234.135 45.3408 234.135 46.4326V47.0547H229.647C229.694 47.6217 229.882 48.0703 230.212 48.4004C230.547 48.7305 230.966 48.8955 231.469 48.8955C232.176 48.8955 232.751 48.6099 233.196 48.0386L234.027 48.832C233.752 49.2425 233.384 49.562 232.923 49.7905C232.466 50.0148 231.952 50.127 231.38 50.127ZM231.196 44.2427C230.773 44.2427 230.43 44.3908 230.168 44.687C229.91 44.9832 229.745 45.3958 229.673 45.9248H232.612V45.8105C232.578 45.2943 232.44 44.9049 232.199 44.6426C231.958 44.376 231.624 44.2427 231.196 44.2427ZM238.331 46.6929H234.999V45.4487H238.331V46.6929ZM241.054 43.1318L241.099 43.8491C241.581 43.2863 242.241 43.0049 243.079 43.0049C243.997 43.0049 244.626 43.3561 244.964 44.0586C245.464 43.3561 246.166 43.0049 247.072 43.0049C247.829 43.0049 248.392 43.2144 248.76 43.6333C249.133 44.0522 249.323 44.6701 249.332 45.4868V50H247.789V45.5312C247.789 45.0954 247.694 44.7759 247.503 44.5728C247.313 44.3696 246.998 44.2681 246.558 44.2681C246.206 44.2681 245.919 44.3633 245.694 44.5537C245.474 44.7399 245.32 44.9854 245.231 45.29L245.237 50H243.695V45.4805C243.674 44.6722 243.261 44.2681 242.457 44.2681C241.839 44.2681 241.401 44.5199 241.143 45.0234V50H239.601V43.1318H241.054ZM255.019 50C254.951 49.8688 254.892 49.6551 254.841 49.3589C254.35 49.8709 253.75 50.127 253.039 50.127C252.349 50.127 251.786 49.9302 251.35 49.5366C250.914 49.1431 250.696 48.6564 250.696 48.0767C250.696 47.3446 250.967 46.7839 251.509 46.3945C252.055 46.001 252.833 45.8042 253.845 45.8042H254.791V45.3535C254.791 44.998 254.691 44.7145 254.492 44.5029C254.293 44.2871 253.991 44.1792 253.584 44.1792C253.233 44.1792 252.945 44.2681 252.721 44.4458C252.497 44.6193 252.385 44.8415 252.385 45.1123H250.842C250.842 44.7357 250.967 44.3844 251.217 44.0586C251.466 43.7285 251.805 43.4704 252.232 43.2842C252.664 43.098 253.144 43.0049 253.673 43.0049C254.477 43.0049 255.118 43.208 255.597 43.6143C256.075 44.0163 256.32 44.5833 256.333 45.3154V48.4131C256.333 49.0309 256.42 49.5239 256.593 49.8921V50H255.019ZM253.324 48.8892C253.629 48.8892 253.915 48.8151 254.181 48.667C254.452 48.5189 254.655 48.32 254.791 48.0703V46.7754H253.959C253.388 46.7754 252.958 46.8748 252.67 47.0737C252.383 47.2726 252.239 47.554 252.239 47.918C252.239 48.2142 252.336 48.4512 252.531 48.6289C252.73 48.8024 252.994 48.8892 253.324 48.8892ZM259.589 50H258.047V43.1318H259.589V50ZM257.952 41.3481C257.952 41.1112 258.026 40.9144 258.174 40.7578C258.326 40.6012 258.542 40.5229 258.821 40.5229C259.101 40.5229 259.316 40.6012 259.469 40.7578C259.621 40.9144 259.697 41.1112 259.697 41.3481C259.697 41.5809 259.621 41.7756 259.469 41.9321C259.316 42.0845 259.101 42.1606 258.821 42.1606C258.542 42.1606 258.326 42.0845 258.174 41.9321C258.026 41.7756 257.952 41.5809 257.952 41.3481ZM262.916 50H261.373V40.25H262.916V50Z" fill="#222D39"/>
</svg>
