<svg width="64" height="43" viewBox="0 0 64 43" fill="none" xmlns="http://www.w3.org/2000/svg">
<path fill-rule="evenodd" clip-rule="evenodd" d="M0 0.125488H63.9118V42.4435H0V0.125488Z" fill="white"/>
<path opacity="0.2" fill-rule="evenodd" clip-rule="evenodd" d="M12.0864 18.6773C8.1546 24.8767 4.2942 31.8608 0.505216 39.6296C0.385764 39.8745 0.325014 40.1436 0.327724 40.4157C0.337418 41.3895 1.14007 42.171 2.12049 42.1614C10.0202 42.0839 17.8903 41.6357 25.7307 40.8168C33.6155 39.9933 40.831 38.8618 47.3772 37.4222C47.519 37.391 47.6564 37.3426 47.7864 37.2782C48.6636 36.8433 49.0198 35.7843 48.5818 34.9131C45.6604 29.1007 42.5174 23.3913 39.1528 17.7846C35.7733 12.1529 32.0814 6.47695 28.0771 0.756752C27.985 0.625171 27.8753 0.506676 27.7509 0.40454C26.9954 -0.216092 25.8763 -0.11088 25.2514 0.639533C20.4269 6.43325 16.0386 12.4458 12.0864 18.6773ZM58.4841 9.71999C59.5503 10.6085 61.301 10.2796 62.3944 8.9854C63.4879 7.69114 63.51 5.92163 62.4438 5.03308C61.3776 4.14453 59.6269 4.47341 58.5334 5.76767C57.44 7.06192 57.4179 8.83143 58.4841 9.71999Z" fill="#C1CCDB"/>
<path opacity="0.2" fill-rule="evenodd" clip-rule="evenodd" d="M51.5026 3.02805C51.3643 3.80717 52.0294 4.57489 52.9881 4.74279C53.9469 4.9107 54.8363 4.41522 54.9746 3.6361C55.1129 2.85698 54.4478 2.08927 53.489 1.92136C52.5303 1.75345 51.6409 2.24894 51.5026 3.02805ZM22.5987 20.4701C20.3421 28.8343 27.6896 38.057 39.0098 41.0696C50.3299 44.0822 61.336 39.7438 63.5925 31.3796C65.8491 23.0154 58.5016 13.7926 47.1814 10.7801C35.8613 7.76746 24.8552 12.1058 22.5987 20.4701Z" fill="#C1CCDB"/>
<path fill-rule="evenodd" clip-rule="evenodd" d="M13.6042 9.20475C19.3921 8.37003 25.195 7.75064 31.0132 7.34656C36.8313 6.94249 42.6646 6.75373 48.5131 6.78029V6.7803C50.2316 6.7881 51.6978 8.0172 51.9943 9.69848C52.5941 13.1006 53.0146 16.5152 53.2559 19.9422C53.4972 23.3693 53.5592 26.8087 53.442 30.2607C53.384 31.9666 52.1043 33.3864 50.4035 33.6317C44.6157 34.4664 38.8128 35.0858 32.9946 35.4898C27.1765 35.8939 21.3432 36.0827 15.4947 36.0561V36.0561C13.7762 36.0483 12.31 34.8192 12.0135 33.1379C11.4137 29.7358 10.9931 26.3212 10.7519 22.8942C10.5106 19.4671 10.4486 16.0277 10.5658 12.5757C10.6238 10.8698 11.9035 9.45002 13.6042 9.20475Z" fill="#D5DCE3"/>
<mask id="mask0" mask-type="alpha" maskUnits="userSpaceOnUse" x="22" y="14" width="19" height="15">
<path fill-rule="evenodd" clip-rule="evenodd" d="M30.6774 20.5046L22.5927 17.3705C22.2602 17.2355 22.0478 16.9103 22.0616 16.5599C22.0802 16.1012 22.1027 15.7791 22.1282 15.4126C22.1299 15.3887 22.1316 15.3646 22.1333 15.3403C22.1782 14.6982 22.7137 14.1852 23.3761 14.1584C28.5675 13.9472 34.436 13.9472 39.6274 14.1584C40.2872 14.1852 40.8218 14.694 40.8676 15.3336C40.89 15.6421 40.909 15.9145 40.9263 16.3034C40.941 16.6538 40.7285 16.9782 40.3952 17.1132L31.674 20.5046C31.3553 20.6337 30.9961 20.6337 30.6774 20.5046ZM40.3886 18.8969C40.6701 18.7829 40.9828 18.9883 40.9871 19.285C41.0234 22.0503 40.9845 24.192 40.8549 26.8777C40.823 27.5331 40.2815 28.0646 39.6061 28.0922C34.4277 28.3026 28.5721 28.3026 23.3937 28.0922C22.7183 28.0646 22.1759 27.5331 22.144 26.8768C22.0187 24.2825 21.979 22.2213 22.0101 19.5466C22.0135 19.2498 22.3262 19.0436 22.6086 19.1585L30.6777 22.2859C30.9964 22.415 31.3548 22.415 31.6735 22.2859L40.3886 18.8969Z" fill="white"/>
</mask>
<g mask="url(#mask0)">
<rect x="22" y="11.625" width="19" height="19" fill="#8792A1"/>
</g>
<circle cx="51.4545" cy="32.4545" r="5.45455" fill="#7E5AEF"/>
<path d="M52.2407 33.8729H50.6646L50.365 34.7718H49.4092L51.0332 30.4092H51.8661L53.4991 34.7718H52.5433L52.2407 33.8729ZM50.9073 33.1448H51.998L51.4496 31.5118L50.9073 33.1448Z" fill="white"/>
</svg>
