<svg width="56" height="39" viewBox="0 0 56 39" fill="none" xmlns="http://www.w3.org/2000/svg">
<path opacity="0.5" fill-rule="evenodd" clip-rule="evenodd" d="M37.3862 4.631C36.5024 4.47622 35.8893 3.76852 36.0168 3.05031C36.1443 2.3321 36.9641 1.87535 37.848 2.03013C38.7318 2.18492 39.3449 2.89262 39.2174 3.61083C39.0899 4.32904 38.27 4.78579 37.3862 4.631Z" fill="#DBD8E7"/>
<path opacity="0.5" fill-rule="evenodd" clip-rule="evenodd" d="M15.5036 29.1162C5.06842 26.3391 -1.70469 17.8373 0.375442 10.127C2.45558 2.41661 12.6013 -1.5826 23.0365 1.19448C33.4716 3.97156 40.2448 12.4733 38.1646 20.1837C36.0845 27.894 25.9388 31.8933 15.5036 29.1162Z" fill="#D0E3D9"/>
<path opacity="0.5" fill-rule="evenodd" clip-rule="evenodd" d="M4.16147 34.2119C10.8198 30.539 9.91047 31.4526 13.5476 29.1687C19.9127 25.9713 39.9171 15.9223 47.6461 10.8967C48.2143 10.2112 49.2318 10.1151 49.9189 10.6821C50.0319 10.7754 50.1684 10.8649 50.2155 11.0038C52.1925 16.8358 52.1925 17.7504 53.1018 22.3171C54.3753 28.713 54.7343 30.0822 55.8297 36.0203C56.2279 36.8163 55.9041 37.7836 55.1064 38.181C54.9882 38.2398 54.8664 38.3125 54.7343 38.3125C49.01 38.3125 36.2799 38.0523 26.6442 37.2223C18.5487 36.5249 12.5471 35.9494 5.36399 36.0203C4.4725 36.0291 4.00889 35.8196 4.00008 34.9301C3.99762 34.6815 4.05285 34.4357 4.16147 34.2119Z" fill="#DBD8E7"/>
<path opacity="0.5" fill-rule="evenodd" clip-rule="evenodd" d="M48.9462 1.05955C50.3458 1.58412 51.1383 2.94111 50.7163 4.09046C50.2943 5.23981 48.8176 5.74629 47.418 5.22172C46.0184 4.69714 45.2259 3.34016 45.6479 2.1908C46.0699 1.04145 47.5466 0.534971 48.9462 1.05955Z" fill="#D0E3D9"/>
<rect x="12" y="11.4336" width="30.4756" height="22.9834" rx="5" transform="rotate(-3.98747 12 11.4336)" fill="#FFCA00"/>
<path fill-rule="evenodd" clip-rule="evenodd" d="M40.6796 13.873C41.2001 14.5176 41.0995 15.462 40.455 15.9824L28.7217 25.4573L15.1754 19.139C14.4246 18.7888 14.0999 17.8963 14.4501 17.1456C14.8002 16.3948 15.6927 16.07 16.4435 16.4202L28.2933 21.9472L38.5702 13.6484C39.2147 13.1279 40.1591 13.2285 40.6796 13.873Z" fill="white"/>
</svg>
