<svg width="63" height="51" viewBox="0 0 63 51" fill="none" xmlns="http://www.w3.org/2000/svg">
<ellipse cx="35.4181" cy="23.767" rx="23.5336" ry="17.9599" transform="rotate(-16.0519 35.4181 23.767)" fill="#F3E2E6" fill-opacity="0.35"/>
<path d="M4.43588 21.7947L38.4952 18.2035C40.0621 18.0383 41.4898 19.1134 41.764 20.6649L46.3689 46.722C46.701 48.6015 45.2168 50.3092 43.3093 50.2422L9.1947 49.0432C7.81996 48.9949 6.65422 48.0178 6.36645 46.6726L1.81684 25.4057C1.44403 23.6631 2.66362 21.9815 4.43588 21.7947Z" fill="#DBEFE8" fill-opacity="0.35"/>
<line x1="4.21714" y1="3.11889" x2="11.414" y2="6.5085" stroke="#F3E2E6" stroke-opacity="0.35" stroke-linecap="round"/>
<line x1="2.36265" y1="6.23693" x2="9.55946" y2="9.62655" stroke="#F3E2E6" stroke-opacity="0.35" stroke-linecap="round"/>
<line x1="0.665386" y1="9.3432" x2="7.8622" y2="12.7328" stroke="#F3E2E6" stroke-opacity="0.35" stroke-linecap="round"/>
<path d="M17.2539 40.9525L19.0778 34.2929C17.9526 32.3439 17.3608 30.1326 17.3615 27.868C17.3645 20.7821 23.1314 15.0172 30.2172 15.0172C33.6563 15.0187 36.8841 16.3571 39.3109 18.7863C41.7383 21.2154 43.0742 24.4442 43.0729 27.8781C43.0699 34.9642 37.3026 40.7295 30.2177 40.7295C30.2172 40.7295 30.2181 40.7295 30.2177 40.7295H30.212C28.0605 40.7289 25.9465 40.1888 24.0689 39.1655L17.2539 40.9525Z" fill="#13C762"/>
<path fill-rule="evenodd" clip-rule="evenodd" d="M26.8915 22.2987C26.6423 21.7445 26.3798 21.7334 26.1427 21.7237C25.9488 21.7154 25.7268 21.7159 25.5051 21.7159C25.2832 21.7159 24.9227 21.7993 24.6179 22.1323C24.3128 22.4652 23.4531 23.2701 23.4531 24.9071C23.4531 26.5444 24.6456 28.1263 24.8118 28.3485C24.9782 28.5703 27.1137 32.0371 30.4957 33.3708C33.3065 34.4792 33.8785 34.2587 34.4886 34.2033C35.0986 34.1478 36.4571 33.3986 36.7345 32.6215C37.0118 31.8447 37.0118 31.1788 36.9286 31.0396C36.8454 30.901 36.6235 30.8178 36.2907 30.6514C35.958 30.485 34.3222 29.6799 34.0171 29.569C33.7121 29.4581 33.4902 29.4026 33.2684 29.7357C33.0465 30.0685 32.4092 30.8178 32.2151 31.0396C32.021 31.262 31.8268 31.2897 31.4941 31.1233C31.1613 30.9564 30.0896 30.6054 28.8183 29.4719C27.8292 28.59 27.1613 27.5009 26.9672 27.1678C26.7731 26.835 26.9464 26.6547 27.1133 26.4888C27.2627 26.3398 27.4461 26.1004 27.6125 25.9061C27.7785 25.7118 27.834 25.5732 27.9449 25.3513C28.0559 25.1291 28.0004 24.9348 27.9172 24.7684C27.834 24.6021 27.1873 22.9566 26.8915 22.2987Z" fill="white"/>
<path d="M39.6396 18.4561C37.1252 15.94 33.7818 14.5536 30.2197 14.552C22.8793 14.552 16.9058 20.5237 16.9028 27.8637C16.9019 30.21 17.515 32.5003 18.6802 34.5191L16.791 41.4173L23.8504 39.5662C25.7955 40.627 27.9854 41.1859 30.214 41.1868H30.2196H30.2197C37.5588 41.1868 43.5332 35.2141 43.5364 27.8744C43.5376 24.3172 42.1536 20.9724 39.6396 18.4561ZM30.2197 38.9385H30.2154C28.2289 38.9374 26.2809 38.4041 24.5819 37.3959L24.1775 37.1562L19.9883 38.2545L21.1067 34.1716L20.8433 33.753C19.7352 31.9912 19.1503 29.9552 19.1511 27.8646C19.1536 21.7638 24.1186 16.8006 30.2238 16.8006C33.1804 16.8018 35.9591 17.9542 38.049 20.0455C40.1387 22.1368 41.2887 24.9169 41.2879 27.8736C41.2853 33.9745 36.3201 38.9385 30.2197 38.9385Z" fill="white"/>
</svg>
