<svg width="116" height="52" viewBox="0 0 116 52" fill="none" xmlns="http://www.w3.org/2000/svg">
<g clip-path="url(#clip0_12310_31263)">
<path d="M28.0854 36.7471H29.9701L25.4616 48.6391H23.6139L28.0854 36.7471Z" fill="#C505F2"/>
<path d="M32.5568 36.7471H34.4045L29.933 48.6391H28.0853L32.5568 36.7471Z" fill="#C505F2"/>
<path d="M44.1605 40.4772C44.7148 40.7726 45.1583 41.105 45.4539 41.5482C45.7496 41.9545 45.9343 42.4715 46.0082 43.0255C46.0822 43.3948 46.1191 44.0226 46.1191 44.8721H39.9477C39.9847 45.7215 40.1694 46.4232 40.539 46.9402C40.9085 47.4573 41.4998 47.7158 42.2758 47.7158C43.0149 47.7158 43.6062 47.4573 44.0497 46.9772C44.3083 46.6817 44.4931 46.3863 44.567 45.98H45.9713C45.9343 46.2755 45.8235 46.6448 45.6017 47.0141C45.38 47.3834 45.1583 47.7158 44.8996 47.9374C44.4562 48.3437 43.9388 48.6391 43.3106 48.7868C42.978 48.8607 42.5715 48.8976 42.165 48.8976C41.1303 48.8976 40.2434 48.5283 39.5043 47.7528C38.7652 46.9772 38.3956 45.9431 38.3956 44.5397C38.3956 43.1732 38.7652 42.1022 39.5043 41.2527C40.2434 40.4033 41.2042 39.9971 42.3867 39.9971C43.0149 40.0709 43.6062 40.2187 44.1605 40.4772ZM44.6779 43.801C44.604 43.1732 44.4931 42.6931 44.2714 42.3238C43.9018 41.659 43.2367 41.2897 42.3498 41.2897C41.6846 41.2897 41.1672 41.5113 40.7238 41.9914C40.2803 42.4715 40.0586 43.0624 40.0216 43.7641H44.6779V43.801Z" fill="white"/>
<path d="M47.043 40.2559H48.8907L50.8123 43.2104L52.7709 40.2559L54.4708 40.2928L51.6623 44.3553L54.6186 48.6394H52.8078L50.7014 45.5002L48.7059 48.6394H46.8951L49.8515 44.3553L47.043 40.2559Z" fill="white"/>
<path d="M55.7643 40.2927H57.1316V41.4007C57.4272 41.0313 57.7229 40.7359 58.0555 40.5143C58.5359 40.1819 59.0902 40.0342 59.7184 40.0342C60.6792 40.0342 61.4922 40.4035 62.1574 41.1421C62.8226 41.8808 63.1552 42.9149 63.1552 44.2813C63.1552 46.1279 62.6748 47.4205 61.714 48.1961C61.1227 48.6762 60.3836 48.9347 59.6075 48.9347C58.9793 48.9347 58.425 48.787 58.0185 48.5285C57.7598 48.3808 57.5011 48.0853 57.1686 47.716V52.0001H55.7643V40.2927ZM61.0857 46.8666C61.5292 46.3126 61.7509 45.5001 61.7509 44.3921C61.7509 43.7274 61.64 43.1365 61.4553 42.6563C61.0857 41.733 60.4205 41.2529 59.4597 41.2529C58.4989 41.2529 57.7968 41.733 57.4642 42.7302C57.2794 43.2472 57.1686 43.912 57.1686 44.7245C57.1686 45.3893 57.2794 45.9063 57.4642 46.3865C57.8337 47.2359 58.4989 47.6791 59.4597 47.6791C60.088 47.716 60.6423 47.4205 61.0857 46.8666Z" fill="white"/>
<path d="M70.0657 40.4772C70.62 40.7726 71.0634 41.105 71.3591 41.5482C71.6547 41.9545 71.8395 42.4715 71.9134 43.0255C71.9873 43.3948 72.0243 44.0226 72.0243 44.8721H65.8529C65.8898 45.7215 66.0746 46.4232 66.4441 46.9402C66.8137 47.4573 67.405 47.7158 68.181 47.7158C68.9201 47.7158 69.5114 47.4573 69.9548 46.9772C70.2135 46.6817 70.3983 46.3863 70.4722 45.98H71.8764C71.8395 46.2755 71.7286 46.6448 71.5069 47.0141C71.2852 47.3834 71.0634 47.7158 70.8048 47.9374C70.3613 48.3437 69.8439 48.6391 69.2157 48.7868C68.8831 48.8607 68.4766 48.8976 68.0701 48.8976C67.0354 48.8976 66.1485 48.5283 65.4094 47.7528C64.6703 46.9772 64.3008 45.9431 64.3008 44.5397C64.3008 43.1732 64.6703 42.1022 65.4094 41.2527C66.1485 40.4033 67.1093 39.9971 68.2919 39.9971C68.9201 40.0709 69.5114 40.2187 70.0657 40.4772ZM70.583 43.801C70.5091 43.1732 70.3983 42.6931 70.1765 42.3238C69.807 41.659 69.1418 41.2897 68.2549 41.2897C67.5897 41.2897 67.0724 41.5113 66.6289 41.9914C66.1855 42.4715 65.9637 43.0624 65.9268 43.7641H70.583V43.801Z" fill="white"/>
<path d="M73.798 40.2555H75.1283V41.6958C75.2392 41.4003 75.4979 41.068 75.9413 40.6617C76.3848 40.2555 76.8652 40.0708 77.4195 40.0708C77.4565 40.0708 77.4934 40.0708 77.5673 40.0708C77.6412 40.0708 77.7521 40.0708 77.8999 40.1077V41.585C77.826 41.585 77.7521 41.5481 77.6782 41.5481C77.6043 41.5481 77.5304 41.5481 77.4565 41.5481C76.7543 41.5481 76.2 41.7697 75.8305 42.2498C75.4609 42.693 75.2762 43.2469 75.2762 43.8378V48.6759H73.8719V40.2555H73.798Z" fill="white"/>
<path d="M79.1195 37.1167H80.5607V38.7048H79.1195V37.1167ZM79.1195 40.2928H80.5607V48.6394H79.1195V40.2928Z" fill="white"/>
<path d="M87.9147 40.4772C88.469 40.7726 88.9124 41.105 89.2081 41.5482C89.5037 41.9545 89.6885 42.4715 89.7624 43.0255C89.8363 43.3948 89.8733 44.0226 89.8733 44.8721H83.7019C83.7388 45.7215 83.9236 46.4232 84.2931 46.9402C84.6627 47.4573 85.254 47.7158 86.03 47.7158C86.7691 47.7158 87.3604 47.4573 87.8038 46.9772C88.0625 46.6817 88.2473 46.3863 88.3212 45.98H89.7254C89.6885 46.2755 89.5776 46.6448 89.3559 47.0141C89.1342 47.3834 88.9124 47.7158 88.6538 47.9374C88.2103 48.3437 87.6929 48.6391 87.0647 48.7868C86.7321 48.8607 86.3256 48.8976 85.9191 48.8976C84.8844 48.8976 83.9975 48.5283 83.2584 47.7528C82.5193 46.9772 82.1498 45.9431 82.1498 44.5397C82.1498 43.1732 82.5193 42.1022 83.2584 41.2527C83.9975 40.4033 84.9583 39.9971 86.1409 39.9971C86.7691 40.0709 87.3604 40.2187 87.9147 40.4772ZM88.432 43.801C88.3581 43.1732 88.2473 42.6931 88.0255 42.3238C87.656 41.659 86.9908 41.2897 86.1039 41.2897C85.4387 41.2897 84.9214 41.5113 84.4779 41.9914C84.0345 42.4715 83.8127 43.0624 83.7758 43.7641H88.432V43.801Z" fill="white"/>
<path d="M91.6101 40.2558H92.9404V41.4376C93.3469 40.9575 93.7534 40.5882 94.1969 40.3666C94.6403 40.145 95.1207 40.0342 95.6751 40.0342C96.8576 40.0342 97.6706 40.4404 98.0771 41.2899C98.2988 41.733 98.4097 42.3978 98.4097 43.2472V48.6393H96.9685V43.358C96.9685 42.841 96.8946 42.4347 96.7467 42.1024C96.4881 41.5853 96.0446 41.3268 95.3794 41.3268C95.0468 41.3268 94.7882 41.3637 94.5664 41.4376C94.1969 41.5484 93.8273 41.77 93.5317 42.1393C93.31 42.4347 93.1252 42.6933 93.0882 42.9887C93.0143 43.2842 92.9774 43.6904 92.9774 44.2444V48.6393H91.5731V40.2558H91.6101Z" fill="white"/>
<path d="M106.096 40.6988C106.688 41.142 107.057 41.9545 107.168 43.0624H105.801C105.727 42.5454 105.542 42.1022 105.246 41.7698C104.951 41.4374 104.47 41.2527 103.805 41.2527C102.918 41.2527 102.253 41.6959 101.883 42.5823C101.625 43.1363 101.514 43.838 101.514 44.6874C101.514 45.5368 101.699 46.2385 102.031 46.8295C102.401 47.4204 102.955 47.6789 103.694 47.6789C104.285 47.6789 104.729 47.4942 105.098 47.1249C105.431 46.7556 105.69 46.2755 105.801 45.6476H107.168C107.02 46.7556 106.614 47.5681 105.985 48.0851C105.357 48.6022 104.544 48.8607 103.583 48.8607C102.475 48.8607 101.625 48.4545 100.96 47.642C100.294 46.8295 99.9618 45.8323 99.9618 44.6505C99.9618 43.1732 100.331 42.0283 101.033 41.2158C101.736 40.4033 102.659 39.9971 103.768 39.9971C104.729 39.9971 105.505 40.2556 106.096 40.6988Z" fill="white"/>
<path d="M113.82 40.4772C114.374 40.7726 114.817 41.105 115.113 41.5482C115.409 41.9545 115.594 42.4715 115.667 43.0255C115.741 43.3948 115.778 44.0226 115.778 44.8721H109.607C109.644 45.7215 109.829 46.4232 110.198 46.9402C110.568 47.4573 111.159 47.7158 111.935 47.7158C112.674 47.7158 113.265 47.4573 113.709 46.9772C113.968 46.6817 114.152 46.3863 114.226 45.98H115.63C115.594 46.2755 115.483 46.6448 115.261 47.0141C115.039 47.3834 114.817 47.7158 114.559 47.9374C114.115 48.3437 113.598 48.6391 112.97 48.7868C112.637 48.8607 112.231 48.8976 111.824 48.8976C110.789 48.8976 109.903 48.5283 109.163 47.7528C108.424 46.9772 108.055 45.9431 108.055 44.5397C108.055 43.1732 108.424 42.1022 109.163 41.2527C109.903 40.4033 110.863 39.9971 112.046 39.9971C112.674 40.0709 113.265 40.2187 113.82 40.4772ZM114.337 43.801C114.263 43.1732 114.152 42.6931 113.931 42.3238C113.561 41.659 112.896 41.2897 112.009 41.2897C111.344 41.2897 110.826 41.5113 110.383 41.9914C109.939 42.4715 109.718 43.0624 109.681 43.7641H114.337V43.801Z" fill="white"/>
<path d="M74.3893 0H66.9984V31.8352H74.3893V0Z" fill="white"/>
<path d="M88.2473 23.7473V31.9831L67.0354 20.0542V11.8184L88.2473 23.7473Z" fill="white"/>
<path d="M66.9984 19.7955V28.3267L88.395 16.3608V7.82959L66.9984 19.7955Z" fill="#C505F2"/>
<path d="M29.4157 6.83252L25.5725 20.4234L21.7292 6.98025L21.7662 6.83252H21.6923H14.7448H14.6709L14.7079 6.98025L10.9016 20.4234L7.02134 6.83252H0L3.21504 18.3552L3.25199 18.2445L7.09525 31.8354H7.76043H7.79739H14.3383H14.6709L18.2555 19.3155L21.7662 31.8354H22.4313H29.0092H29.3418L36.4371 6.83252H29.4157Z" fill="white"/>
<mask id="mask0_12310_31263" style="mask-type:luminance" maskUnits="userSpaceOnUse" x="0" y="0" width="116" height="33">
<path d="M116 0H0V32.4631H116V0Z" fill="white"/>
</mask>
<g mask="url(#mask0_12310_31263)">
<path d="M45.1953 24.0057C46.4148 25.2983 47.9299 25.9262 49.8146 25.9262C51.6993 25.9262 53.2144 25.2983 54.4339 23.9688C55.6534 22.6392 56.3186 21.0881 56.3186 19.2785C56.3186 17.4688 55.6904 15.8807 54.4339 14.625C53.2144 13.3324 51.6993 12.7046 49.8146 12.7046C47.9299 12.7046 46.4148 13.3324 45.1953 14.625C44.0128 15.9177 43.4215 17.4688 43.4215 19.2785C43.4215 21.125 44.0128 22.6762 45.1953 24.0057ZM56.3186 6.86936H63.0812V31.8353H56.3186V29.287C54.1752 31.429 51.6254 32.5 48.5951 32.5C45.0105 32.5 42.0542 31.2074 39.726 28.6961C37.3979 26.1478 36.2523 22.9716 36.2523 19.2046C36.2523 15.4375 37.4349 12.3353 39.763 9.89777C42.0911 7.42334 45.0844 6.20459 48.5951 6.20459C51.6254 6.20459 54.1752 7.31254 56.3186 9.49152V6.86936Z" fill="white"/>
</g>
<mask id="mask1_12310_31263" style="mask-type:luminance" maskUnits="userSpaceOnUse" x="0" y="0" width="116" height="33">
<path d="M116 0H0V32.4631H116V0Z" fill="white"/>
</mask>
<g mask="url(#mask1_12310_31263)">
<path d="M97.301 16.6564H109.089C108.387 13.7757 106.281 12.003 103.325 12.003C100.405 12.003 98.077 13.7388 97.301 16.6564ZM115.778 21.79H97.338C98.1879 24.9292 100.479 26.4803 104.138 26.4803C106.983 26.4803 109.57 25.6678 111.972 24.0428L114.817 28.9178C111.75 31.2445 108.092 32.3894 103.842 32.3894C99.4074 32.3894 96.0076 31.0968 93.6425 28.5854C91.3144 26.074 90.1318 22.9718 90.1318 19.2786C90.1318 15.4746 91.3513 12.3723 93.7903 9.8979C96.2293 7.38654 99.4074 6.13086 103.362 6.13086C107.057 6.13086 110.087 7.27575 112.452 9.52859C114.817 11.7814 116.037 14.8468 116.037 18.7246C116 19.6479 115.926 20.6451 115.778 21.79Z" fill="white"/>
</g>
</g>
<defs>
<clipPath id="clip0_12310_31263">
<rect width="116" height="52" fill="white"/>
</clipPath>
</defs>
</svg>
